<svg width="485" height="186" viewBox="0 0 485 186" fill="none" xmlns="http://www.w3.org/2000/svg">
<path d="M134.107 93L111.025 124.931L103.815 134.903L98.8056 141.833L67.5303 185L36.3018 141.833L31.2921 134.903L24.082 124.931L1 93L24.082 61.0692L31.2921 51.0967L36.3018 44.1674L67.5303 1L98.8056 44.1674L103.815 51.0967L111.025 61.0692L134.107 93Z" fill="#135590" stroke="#111111" stroke-width="1.49304" stroke-miterlimit="10" stroke-linejoin="round"/>
<path fill-rule="evenodd" clip-rule="evenodd" d="M86.633 39.3914L94.405 50.1598L99.4147 57.0891L93.5623 65.2357L86.2117 75.4423L81.202 68.4662L88.5058 58.3064L80.7338 47.538L67.4839 65.8443L54.2341 47.538L46.462 58.3064L53.6254 68.2321L48.9903 75.77L41.4056 65.2825L35.5532 57.1359L40.5628 50.2067L48.3348 39.4382L67.4839 12.9853L86.633 39.3914ZM61.2101 37.8463L67.4839 46.5547L73.7577 37.8463L67.4839 29.138L61.2101 37.8463ZM40.1414 83.3547L46.4152 92.0631L47.1175 93.0464L46.4152 94.0295L40.1414 102.738L34.2422 110.885L28.3898 119.031L9.61523 93.0932L28.3898 67.1552L34.2422 75.3018L40.1414 83.3547ZM21.3201 92.9995L27.5939 101.708L33.8677 92.9995L27.5939 84.2911L21.3201 92.9995ZM106.672 67.0616L100.819 75.1614L94.92 83.3079L88.6463 92.0163L87.944 92.9995L88.5526 93.8423L88.5994 93.8891L88.6463 93.9827L94.92 102.691L100.819 110.838L106.672 118.984L125.446 93.0464L106.672 67.0616ZM101.147 92.9995L107.421 84.2911L113.695 92.9995L107.421 101.708L101.147 92.9995ZM87.5694 112.476L93.5623 120.763L99.4616 128.91L94.4519 135.839L86.6799 146.608L67.5307 173.061L48.3817 146.608L40.6096 135.839L35.6 128.91L41.4524 120.763L47.4453 112.476L52.5485 119.312L46.4152 127.739L54.1872 138.508L67.4839 120.202L80.7806 138.508L88.5526 127.739L82.4193 119.312L87.5694 112.476ZM61.2101 148.153L67.4839 156.861L73.7577 148.153L67.4839 139.444L61.2101 148.153Z" fill="#BAFBFF" stroke="#111111" stroke-width="1.49304" stroke-miterlimit="10" stroke-linejoin="round"/>
<path d="M101.148 93.0001L67.5312 81.3422V46.5554L94.5928 83.964L101.148 93.0001Z" fill="#F270A5" stroke="#111111" stroke-width="1.49304" stroke-miterlimit="10" stroke-linejoin="round"/>
<path d="M67.5323 81.3423V109.996L33.916 93.0003L50.6305 87.1947L67.5323 81.3423Z" fill="#F270A5" stroke="#111111" stroke-width="1.49304" stroke-miterlimit="10" stroke-linejoin="round"/>
<path d="M67.5323 46.5554V81.3422L50.6305 87.1946L33.916 93.0001L40.4707 83.9172L43.8417 79.2821L67.5323 46.5554Z" fill="#FFC8DE" stroke="#111111" stroke-width="1.49304" stroke-miterlimit="10" stroke-linejoin="round"/>
<path d="M101.148 93.0003L69.3572 109.059L67.5312 109.996V81.3423L101.148 93.0003Z" fill="#D9206B" stroke="#111111" stroke-width="1.49304" stroke-miterlimit="10" stroke-linejoin="round"/>
<path d="M67.5312 116.129V139.445L101.148 98.6183L67.5312 116.129Z" fill="#F270A5" stroke="#111111" stroke-width="1.49304" stroke-miterlimit="10" stroke-linejoin="round"/>
<path d="M67.5323 116.129V139.445L33.916 98.6183L67.5323 116.129Z" fill="#FFC8DE" stroke="#111111" stroke-width="1.49304" stroke-miterlimit="10" stroke-linejoin="round"/>
<path d="M184.819 79.0751C184.819 79.2991 184.669 82.6581 184.296 89.0776C183.998 95.4225 183.848 102.514 183.848 110.277C183.848 118.04 183.998 125.356 184.296 132.223C184.669 139.09 184.819 143.121 184.819 144.316C184.819 145.51 184.296 146.63 183.326 147.824C182.43 149.018 181.161 149.541 179.668 149.541C178.175 149.541 176.906 148.944 175.936 147.824C175.04 146.63 174.518 145.51 174.518 144.316C174.518 143.121 174.667 139.165 174.965 132.223C175.339 125.356 175.488 118.04 175.488 110.277C175.488 102.514 175.339 95.4225 174.965 89.0776C174.667 82.6581 174.518 79.2991 174.518 79.0751C174.518 77.5822 174.965 76.2386 175.936 75.0442C176.906 73.7753 178.175 73.1781 179.668 73.1781C181.161 73.1781 182.43 73.7753 183.326 75.0442C184.296 76.2386 184.819 77.5822 184.819 79.0751Z" fill="#111111"/>
<path d="M202.51 149.54C199.823 149.54 197.733 149.018 196.09 147.898C194.448 146.779 193.627 145.435 193.627 143.867C193.627 142.225 194.075 140.882 195.045 139.986C196.016 138.941 196.986 138.493 197.956 138.493C198.927 138.493 200.569 138.941 202.808 139.762C205.048 140.658 207.362 141.031 209.676 141.031C212.139 141.031 214.528 140.434 216.991 139.165C219.454 137.896 220.649 136.328 220.649 134.462C220.649 132.596 219.753 131.103 217.887 130.133C216.095 129.088 213.931 128.341 211.318 127.744C208.705 127.072 206.167 126.4 203.555 125.579C200.942 124.758 198.778 123.564 196.911 121.996C195.12 120.354 194.224 118.264 194.224 115.875C194.224 111.994 196.687 108.261 201.614 104.678C206.541 101.021 211.99 99.2292 217.962 99.2292C220.798 99.2292 223.037 99.7518 224.53 100.871C226.098 101.917 226.919 103.26 226.919 104.902C226.919 106.545 226.397 107.888 225.426 108.933C224.53 109.904 223.56 110.351 222.515 110.351C221.619 110.351 219.977 109.904 217.812 109.082C215.573 108.187 213.259 107.814 210.795 107.814C208.407 107.814 206.317 108.336 204.525 109.306C202.808 110.351 201.913 111.546 201.913 113.039C201.913 114.532 203.256 115.726 206.018 116.846C208.78 117.965 211.841 118.786 215.2 119.458C218.484 120.13 221.544 121.399 224.232 123.34C226.994 125.206 228.412 127.669 228.412 130.73C228.412 135.432 225.65 139.762 220.201 143.643C214.752 147.525 208.855 149.54 202.51 149.54Z" fill="#111111"/>
<path d="M261.183 107.366C260.809 107.366 256.331 107.067 247.746 106.47C247.746 107.44 247.597 111.023 247.299 117.219C247 123.489 246.851 128.117 246.851 131.178C246.851 134.163 247.523 136.627 248.791 138.717C250.135 140.658 250.807 142.449 250.807 144.017C250.807 145.584 250.284 146.928 249.165 148.047C248.12 149.093 246.851 149.54 245.507 149.54C241.924 149.54 240.133 146.704 240.133 140.956L239.685 118.861C239.685 114.382 239.61 110.351 239.386 106.768H236.774C235.803 106.768 234.907 106.47 234.31 105.873C233.638 105.201 233.34 104.38 233.34 103.26C233.34 102.14 233.638 101.319 234.31 100.722C234.982 100.05 235.803 99.7517 236.774 99.7517H239.013C238.864 95.9447 238.789 93.1082 238.789 91.1674C238.789 89.152 239.237 87.5098 240.207 86.3901C241.178 85.1211 242.372 84.5239 243.79 84.5239C245.209 84.5239 246.254 85.1211 247.149 86.2408C248.045 87.3605 248.418 89.1519 248.418 91.6899C248.418 94.2279 248.344 96.9898 248.12 100.05L261.108 99.1545C263.87 99.1545 265.288 100.498 265.288 103.185C265.288 105.873 263.945 107.366 261.183 107.366Z" fill="#111111"/>
<path d="M305.895 134.313C306.418 135.582 307.463 137.373 309.03 139.613C310.672 141.777 311.493 143.569 311.493 144.913C311.493 146.256 311.12 147.45 310.448 148.272C309.702 149.093 308.732 149.466 307.537 149.466C304.626 149.466 302.013 146.405 299.699 140.21L298.804 137.821C295.146 145.584 289.697 149.466 282.307 149.466C278.649 149.466 275.589 148.272 273.2 145.958C270.812 143.569 269.617 140.583 269.617 137.075C269.617 131.551 271.483 126.848 275.216 122.817C278.948 118.861 283.8 116.696 289.846 116.398C288.428 113.86 286.786 111.994 284.994 110.725C283.277 109.456 281.71 108.635 280.292 108.411C278.873 108.187 277.53 108.112 276.186 108.112C274.992 108.037 274.021 107.739 273.275 107.216C272.528 106.694 272.23 105.723 272.23 104.305C272.23 102.812 272.827 101.543 273.947 100.573C275.141 99.6025 276.634 99.1546 278.276 99.1546C282.904 99.1546 287.532 101.543 292.011 106.246C296.564 110.949 300.446 118.339 303.88 128.416L305.895 134.313ZM287.159 122.295C284.546 122.295 282.232 123.191 280.142 124.907C278.127 126.624 277.156 128.864 277.156 131.626C277.156 134.387 278.052 136.701 279.844 138.568C281.71 140.359 283.949 141.255 286.487 141.255C289.025 141.255 291.264 140.359 293.131 138.568C294.997 136.701 295.892 134.462 295.892 131.924C295.892 130.133 295.594 128.416 294.922 126.923C294.25 125.355 293.877 124.385 293.728 124.012C292.011 122.817 289.772 122.295 287.159 122.295Z" fill="#111111"/>
<path d="M326.872 117.816L327.543 144.39C327.543 145.883 327.096 147.152 326.274 148.197C325.379 149.168 324.334 149.615 322.915 149.615C321.572 149.615 320.377 149.168 319.332 148.197C318.437 147.152 317.914 145.883 317.914 144.39L318.661 122.818C318.661 122.818 318.437 116.771 317.914 104.679C317.914 103.186 318.362 101.917 319.332 100.872C320.303 99.8267 321.497 99.3788 322.915 99.3788C324.259 99.3788 325.379 99.9013 326.274 100.872C327.17 101.842 327.543 103.036 327.543 104.455C327.543 105.873 327.543 106.993 327.469 107.739C331.5 102.141 336.128 99.3788 341.353 99.3788C348.892 99.3788 353.744 104.455 355.909 114.681L360.014 133.417C360.462 135.059 361.283 136.926 362.627 138.866C363.971 140.733 364.642 142.449 364.642 143.942C364.642 147.749 362.851 149.615 359.268 149.615C355.685 149.615 353.371 146.779 352.251 141.031L348.146 118.264C346.802 111.024 343.07 107.366 337.098 107.366C334.038 107.366 331.649 108.411 329.857 110.501C328.066 112.591 327.095 115.054 326.872 117.816Z" fill="#111111"/>
<path d="M369.195 131.476C369.195 131.476 369.493 124.833 370.09 111.546C370.09 99.752 369.792 90.4959 369.195 83.7778C368.597 77.1343 368.299 73.6259 368.299 73.4767C368.299 69.3711 369.866 67.2811 373.002 67.2811C376.808 67.2811 378.675 70.2669 378.675 76.1639C378.675 79.7469 378.301 85.7932 377.48 94.3028C376.734 102.887 376.361 108.56 376.286 111.397C379.272 107.59 382.855 104.679 387.035 102.514C391.29 100.349 395.47 99.2294 399.725 99.2294C404.054 99.2294 407.787 101.021 410.922 104.529C414.131 108.038 415.774 112.218 415.774 117.219C415.774 125.281 412.713 132.671 406.667 139.389C400.546 146.032 393.678 149.391 385.915 149.391C381.138 149.391 377.107 147.675 373.897 144.166C370.762 140.807 369.195 136.552 369.195 131.476ZM380.914 112.666C377.779 115.875 376.211 119.757 376.211 124.385C376.211 129.013 377.779 132.969 380.914 136.254C384.124 139.464 388.005 141.031 392.559 141.031C397.112 141.031 400.994 139.464 404.054 136.254C407.115 132.969 408.682 129.013 408.682 124.385C408.682 119.757 407.115 115.801 404.054 112.666C400.994 109.456 397.112 107.888 392.559 107.888C388.005 107.888 384.124 109.531 380.914 112.666Z" fill="#111111"/>
<path d="M453.47 130.282L452.425 105.798C452.425 103.857 452.873 102.29 453.843 101.095C454.814 99.8264 456.008 99.2293 457.426 99.2293C458.77 99.2293 459.89 99.8264 460.785 100.946C461.681 102.066 462.054 103.559 462.054 105.499C462.054 107.366 461.83 110.053 461.383 113.561C460.487 120.503 460.114 126.774 460.114 132.297C460.114 134.462 460.785 136.552 462.129 138.642C463.547 140.583 464.294 142.375 464.294 143.942C464.294 145.51 463.771 146.853 462.652 147.973C461.606 149.018 460.337 149.466 458.994 149.466C455.411 149.466 453.619 146.629 453.619 140.882C450.26 146.629 446.006 149.466 440.93 149.466C436.824 149.466 433.614 147.973 431.151 144.987C428.762 142.001 427.12 138.418 426.224 134.089L422.119 115.353C421.671 113.263 420.701 111.397 419.208 109.829C417.789 108.187 417.043 106.47 417.043 104.828C417.043 103.186 417.64 101.842 418.76 100.797C419.88 99.6771 421.298 99.1546 422.865 99.1546C426.448 99.1546 428.762 101.991 429.882 107.739L433.988 130.506C435.331 137.746 438.765 141.404 444.214 141.404C446.901 141.404 449.066 140.359 450.783 138.269C452.425 136.179 453.321 133.492 453.47 130.282Z" fill="#111111"/>
<path d="M473.997 140.956C473.997 112.74 473.847 95.8704 473.474 90.3466C472.802 80.344 472.504 74.5217 472.504 72.8048C472.504 71.1626 472.952 69.819 473.922 68.774C474.892 67.7289 476.087 67.2811 477.505 67.2811C478.849 67.2811 479.968 67.8036 480.864 68.774C481.76 69.819 482.133 71.088 482.133 72.5809C482.133 77.1343 481.984 83.3299 481.611 91.1677C480.864 109.605 480.566 123.265 480.566 132.298C480.566 134.462 481.237 136.552 482.581 138.642C483.999 140.583 484.746 142.375 484.746 143.942C484.746 145.51 484.223 146.853 483.104 147.973C482.059 149.018 480.79 149.466 479.446 149.466C475.788 149.541 473.997 146.704 473.997 140.956Z" fill="#111111"/>
<path d="M190.268 47.7431V50.4303H174.518V28.783H189.82V31.4702H177.653V38.1137H188.551V40.7263H177.653V47.7431H190.268Z" fill="#111111"/>
<path d="M218.183 31.3957H210.719V28.7084H228.634V31.3957H221.169V50.3557H218.109V31.3957H218.183Z" fill="#111111"/>
<path d="M269.241 28.7084V50.3557H266.181V40.7264H253.715V50.3557H250.654V28.7084H253.715V38.0392H266.181V28.7084H269.241Z" fill="#111111"/>
<path d="M309.405 39.4572H312.391V47.8922C311.345 48.7879 310.076 49.4597 308.658 49.9076C307.24 50.3554 305.747 50.654 304.179 50.654C302.015 50.654 299.999 50.2062 298.282 49.2358C296.491 48.2654 295.147 46.9218 294.102 45.2796C293.132 43.5627 292.609 41.6966 292.609 39.6065C292.609 37.5164 293.132 35.5757 294.102 33.9334C295.147 32.2166 296.491 30.9476 298.282 29.9772C300.074 29.0068 302.015 28.5589 304.254 28.5589C305.971 28.5589 307.538 28.8575 308.957 29.4547C310.375 29.9772 311.569 30.8729 312.614 31.918L310.674 33.8587C308.957 32.2165 306.867 31.3208 304.403 31.3208C302.761 31.3208 301.268 31.6941 299.925 32.4405C298.656 33.1123 297.611 34.1574 296.864 35.4264C296.118 36.6953 295.744 38.1136 295.744 39.6811C295.744 41.2487 296.118 42.6669 296.864 43.9359C297.611 45.2049 298.656 46.1753 299.925 46.9217C301.268 47.6682 302.687 48.0414 304.329 48.0414C306.27 48.0414 307.986 47.5936 309.405 46.6232V39.4572Z" fill="#111111"/>
<path d="M336.426 27.4396H339.412V50.4306H336.426V27.4396Z" fill="#111111"/>
<path d="M370.686 50.5795C369.044 50.5795 367.625 50.2063 366.282 49.4598C365.013 48.7134 363.968 47.743 363.221 46.474C362.475 45.205 362.102 43.7122 362.102 42.1446C362.102 40.5024 362.475 39.0841 363.221 37.8151C363.968 36.5461 365.013 35.5757 366.282 34.8293C367.551 34.0828 369.044 33.7096 370.686 33.7096C372.328 33.7096 373.746 34.0828 375.015 34.8293C376.284 35.5011 377.329 36.5461 378.076 37.8151C378.822 39.0841 379.195 40.5024 379.195 42.1446C379.195 43.7868 378.822 45.205 378.076 46.474C377.329 47.743 376.359 48.7134 375.015 49.4598C373.746 50.2063 372.328 50.5795 370.686 50.5795ZM370.686 47.9669C371.731 47.9669 372.701 47.743 373.522 47.2205C374.343 46.6979 375.015 46.0262 375.538 45.2051C375.986 44.3093 376.284 43.3389 376.284 42.1446C376.284 41.0249 376.06 39.9799 375.538 39.1588C375.09 38.263 374.418 37.5912 373.522 37.1433C372.701 36.6954 371.731 36.3968 370.686 36.3968C369.641 36.3968 368.67 36.6208 367.849 37.1433C367.028 37.5912 366.356 38.263 365.834 39.1588C365.386 40.0545 365.087 41.0249 365.087 42.1446C365.087 43.2643 365.311 44.3093 365.834 45.2051C366.356 46.1008 366.954 46.7726 367.849 47.2205C368.67 47.743 369.641 47.9669 370.686 47.9669Z" fill="#111111"/>
<path d="M410.622 33.8589C412.19 33.8589 413.608 34.2321 414.877 34.9039C416.146 35.5757 417.116 36.6208 417.788 37.8151C418.535 39.0841 418.908 40.5024 418.908 42.1446C418.908 43.7868 418.535 45.2797 417.788 46.5487C417.116 47.8176 416.071 48.788 414.877 49.4599C413.608 50.1317 412.19 50.5049 410.622 50.5049C409.428 50.5049 408.308 50.281 407.263 49.7585C406.218 49.3106 405.397 48.5641 404.725 47.6683V50.2809H401.889V27.2901H404.875V36.3222C405.546 35.4265 406.367 34.8293 407.338 34.3814C408.308 34.0829 409.428 33.8589 410.622 33.8589ZM410.324 47.9669C411.369 47.9669 412.339 47.743 413.16 47.2205C413.981 46.698 414.653 46.0262 415.176 45.2051C415.698 44.3093 415.922 43.339 415.922 42.1446C415.922 41.0249 415.698 39.9799 415.176 39.1588C414.728 38.263 414.056 37.5912 413.16 37.1433C412.339 36.6954 411.369 36.3968 410.324 36.3968C409.279 36.3968 408.383 36.6208 407.487 37.1433C406.591 37.6658 405.994 38.263 405.472 39.1588C405.024 40.0545 404.725 41.0249 404.725 42.1446C404.725 43.2643 404.949 44.3093 405.472 45.2051C405.92 46.1008 406.591 46.7726 407.487 47.2205C408.383 47.743 409.279 47.9669 410.324 47.9669Z" fill="#111111"/>
<path d="M447.421 33.8588C449.66 33.8588 451.452 34.3814 452.646 35.5011C453.84 36.6208 454.437 38.2629 454.437 40.5023V50.4302H451.601V48.2655C451.078 49.012 450.407 49.6091 449.436 50.057C448.54 50.4302 447.421 50.6541 446.152 50.6541C444.286 50.6541 442.867 50.2063 441.748 49.3106C440.628 48.4148 440.105 47.2204 440.105 45.8021C440.105 44.3839 440.628 43.1896 441.673 42.3685C442.718 41.4727 444.435 41.0249 446.674 41.0249H451.377V40.4277C451.377 39.1587 451.004 38.1883 450.257 37.5165C449.511 36.8447 448.391 36.4714 446.973 36.4714C446.002 36.4714 445.032 36.6208 444.136 36.994C443.241 37.2926 442.419 37.7404 441.748 38.2629L440.479 36.0236C441.3 35.3518 442.345 34.8293 443.539 34.456C444.808 34.0082 446.077 33.8588 447.421 33.8588ZM446.749 48.3401C447.869 48.3401 448.839 48.1162 449.66 47.5937C450.481 47.0711 451.078 46.3247 451.452 45.4289V43.1149H446.898C444.36 43.1149 443.091 43.936 443.091 45.6529C443.091 46.474 443.39 47.1458 444.062 47.5937C444.659 48.0415 445.555 48.3401 446.749 48.3401Z" fill="#111111"/>
<path d="M478.551 27.4396H481.537V50.4306H478.551V27.4396Z" fill="#111111"/>
</svg>
